<?xml version="1.0" encoding="UTF-8"?>
<svg id="Layer_2" data-name="Layer 2" xmlns="http://www.w3.org/2000/svg" viewBox="0 0 269.1 269.1">
  <defs>
    <style>
      .cls-1 {
        stroke-width: 0px;
      }
    </style>
  </defs>
  <g id="Isolation_Mode" data-name="Isolation Mode">
    <g>
      <path class="cls-1" d="m134.55,0C60.24,0,0,60.24,0,134.55s60.24,134.55,134.55,134.55,134.55-60.24,134.55-134.55S208.86,0,134.55,0Zm107.35,89.21c4.2,9.92,6.96,20.28,8.27,30.93-4.86-5-10.41-9.34-16.54-12.89l-50.54-29.18c-9.47-8.16-20.67-13.72-32.73-16.32l19.11-11.03c11.47-6.62,24.81-9.11,37.85-7.13,3.33,2.67,6.55,5.52,9.61,8.58,10.71,10.71,19.11,23.16,24.97,37.04Zm-67.45,5.44c10.66,10.65,16.53,24.82,16.53,39.9,0,4.04-.43,8.01-1.26,11.87h-.05v.22c-2.27,10.46-7.47,20.07-15.22,27.82-6.44,6.44-14.17,11.12-22.6,13.82l-.03-.05-.22.13c-5.45,1.72-11.18,2.62-17.05,2.62-14.13,0-27.48-5.16-37.87-14.59l.02-.04-.17-.1c-.64-.58-1.27-1.18-1.89-1.8-10.66-10.66-16.53-24.83-16.53-39.91,0-4.04.44-8.02,1.26-11.88h.05v-.23c2.27-10.45,7.47-20.05,15.22-27.79,6.44-6.44,14.17-11.12,22.61-13.83l.02.04.18-.1c5.46-1.73,11.21-2.63,17.1-2.63,14.14,0,27.48,5.16,37.88,14.6l-.02.03.14.08c.65.59,1.28,1.19,1.9,1.81Zm5.44-67.45s.01,0,.02,0c-6.77,1.71-13.32,4.34-19.46,7.89l-50.35,29.07c-10.5,3.64-20.13,9.62-28.22,17.71-.84.84-1.66,1.7-2.45,2.58v-22.07c0-13.27,4.53-26.1,12.8-36.4,13.47-5.26,27.69-7.93,42.33-7.93,15.73,0,30.99,3.08,45.34,9.15Zm-127.72,24.97c3.81-3.81,7.85-7.31,12.08-10.52-1.89,6.7-2.88,13.67-2.88,20.73v58.22c-.86,4.55-1.31,9.21-1.31,13.95,0,7.82,1.21,15.44,3.52,22.68l-19.08-11.01c-11.49-6.64-20.34-16.98-25.13-29.3,1.44-9.51,4.06-18.78,7.82-27.7,5.87-13.88,14.27-26.33,24.97-37.04Zm-24.97,127.72c-4.2-9.93-6.96-20.29-8.27-30.94,4.86,5,10.41,9.35,16.55,12.89l50.51,29.16c9.47,8.17,20.67,13.74,32.74,16.34l-19.1,11.03c-11.47,6.62-24.81,9.11-37.84,7.13-3.33-2.68-6.55-5.52-9.61-8.58-10.71-10.71-19.11-23.16-24.97-37.03Zm62.01,62s-.01,0-.02,0c6.77-1.71,13.32-4.35,19.46-7.89l50.32-29.05c10.51-3.64,20.15-9.63,28.25-17.73.84-.84,1.66-1.7,2.46-2.58v22.06c0,13.28-4.53,26.11-12.81,36.42-13.46,5.26-27.68,7.92-42.32,7.92-15.73,0-30.99-3.08-45.34-9.15Zm127.72-24.97c-3.81,3.81-7.85,7.31-12.09,10.52,1.9-6.7,2.89-13.67,2.89-20.75v-58.22c.86-4.55,1.31-9.2,1.31-13.93,0-7.81-1.21-15.44-3.52-22.68l19.09,11.02c11.48,6.63,20.33,16.96,25.12,29.27-1.44,9.52-4.06,18.8-7.83,27.73-5.87,13.87-14.27,26.32-24.97,37.03Z"/>
      <polygon class="cls-1" points="117.27 80.86 117.27 80.86 117.27 80.86 117.27 80.86"/>
      <path class="cls-1" d="m134.55,96.47c-10.17,0-19.73,3.96-26.93,11.16-7.19,7.19-11.15,16.76-11.15,26.92s3.96,19.73,11.15,26.93c7.19,7.19,16.75,11.15,26.93,11.15s19.73-3.96,26.93-11.15c7.19-7.2,11.15-16.76,11.15-26.93s-3.96-19.73-11.15-26.92c-7.19-7.2-16.76-11.16-26.93-11.16Z"/>
    </g>
  </g>
</svg>