<?xml version="1.0" encoding="UTF-8"?>
<svg id="Layer_2" data-name="Layer 2" xmlns="http://www.w3.org/2000/svg" viewBox="0 0 295.58 243.28">
  <defs>
    <style>
      .cls-1 {
        stroke-width: 0px;
      }
    </style>
  </defs>
  <g id="Isolation_Mode" data-name="Isolation Mode">
    <g>
      <path class="cls-1" d="m230.36,243.28c-18.58,0-35.55-13.47-47.77-37.92-11.26-22.51-17.45-52.24-17.45-83.72s6.2-61.21,17.45-83.72C194.81,13.47,211.78,0,230.36,0s35.55,13.47,47.77,37.92c11.26,22.51,17.45,52.25,17.45,83.72s-6.2,61.21-17.45,83.72c-12.23,24.45-29.19,37.92-47.77,37.92Zm0-225.67c-11.39,0-23.06,10.27-32.01,28.18-10.06,20.11-15.59,47.05-15.59,75.85s5.54,55.73,15.59,75.85c8.95,17.91,20.62,28.18,32.01,28.18s23.06-10.27,32.01-28.18c10.06-20.11,15.59-47.05,15.59-75.85s-5.54-55.73-15.59-75.85c-8.95-17.91-20.62-28.18-32.01-28.18Z"/>
      <path class="cls-1" d="m108,196.96c-12.39,0-23.54-8.65-31.39-24.35-6.88-13.76-10.67-31.86-10.67-50.97s3.79-37.21,10.67-50.97c7.85-15.7,19-24.35,31.39-24.35s23.54,8.65,31.39,24.35c6.88,13.76,10.67,31.86,10.67,50.97s-3.79,37.21-10.67,50.97c-7.85,15.7-19,24.35-31.39,24.35Zm0-133.02c-10.21,0-24.45,21.95-24.45,57.7s14.24,57.7,24.45,57.7,24.45-21.95,24.45-57.7-14.24-57.7-24.45-57.7Z"/>
      <path class="cls-1" d="m25.44,163.71c-14.5,0-25.44-18.08-25.44-42.06s10.93-42.06,25.44-42.06,25.44,18.08,25.44,42.06-10.94,42.06-25.44,42.06Zm0-66.5c-1.95.57-7.82,8.73-7.82,24.44s5.86,23.87,7.82,24.44c1.95-.57,7.82-8.73,7.82-24.44s-5.86-23.87-7.82-24.44Z"/>
      <path class="cls-1" d="m230.36,163.71c-14.5,0-25.44-18.08-25.44-42.06s10.93-42.06,25.44-42.06,25.44,18.08,25.44,42.06-10.93,42.06-25.44,42.06Zm0-66.5c-1.95.57-7.82,8.73-7.82,24.44s5.86,23.87,7.82,24.44c1.95-.57,7.82-8.73,7.82-24.44s-5.86-23.87-7.82-24.44Z"/>
    </g>
  </g>
</svg>