<?xml version="1.0" encoding="UTF-8"?>
<svg id="Layer_2" data-name="Layer 2" xmlns="http://www.w3.org/2000/svg" viewBox="0 0 266.6 212.19">
  <defs>
    <style>
      .cls-1 {
        stroke-width: 0px;
      }
    </style>
  </defs>
  <g id="Isolation_Mode" data-name="Isolation Mode">
    <g>
      <path class="cls-1" d="m246.11,19.12c.75,0,1.36.61,1.36,1.36v171.22c0,.75-.61,1.36-1.36,1.36H20.48c-.75,0-1.36-.61-1.36-1.36V20.48c0-.75.61-1.36,1.36-1.36h225.63m0-19.12H20.48C9.17,0,0,9.17,0,20.48v171.22c0,11.31,9.17,20.48,20.48,20.48h225.63c11.31,0,20.48-9.17,20.48-20.48V20.48c0-11.31-9.17-20.48-20.48-20.48h0Z"/>
      <path class="cls-1" d="m45.23,42.45l68.35,5.49c6.53.52,13.17.79,19.72.79s13.19-.27,19.72-.79l68.35-5.49-3.91,39.14c-1.63,16.26-1.63,32.75,0,49.01l3.91,39.14-68.35-5.49c-6.53-.52-13.17-.79-19.72-.79s-13.19.27-19.72.79l-68.35,5.49,3.91-39.14c1.63-16.26,1.63-32.75,0-49.01l-3.91-39.14m185.2-15.12l-78.55,6.31c-6.18.5-12.38.74-18.57.74s-12.39-.25-18.57-.74l-78.55-6.31c-3.43,0-6.2,3.01-6.2,6.72l4.9,48.96c1.53,15.35,1.53,30.81,0,46.15l-4.9,48.96c0,3.71,2.78,6.72,6.2,6.72l78.55-6.31c6.18-.5,12.38-.74,18.57-.74s12.39.25,18.57.74l78.55,6.31c3.43,0,6.2-3.01,6.2-6.72l-4.9-48.96c-1.53-15.35-1.53-30.81,0-46.15l4.9-48.96c0-3.71-2.78-6.72-6.2-6.72h0Z"/>
    </g>
  </g>
</svg>