<?xml version="1.0" encoding="UTF-8"?>
<svg id="Layer_2" data-name="Layer 2" xmlns="http://www.w3.org/2000/svg" viewBox="0 0 276.72 276.72">
  <defs>
    <style>
      .cls-1 {
        stroke-width: 0px;
      }
    </style>
  </defs>
  <g id="Isolation_Mode" data-name="Isolation Mode">
    <g>
      <path class="cls-1" d="m100.38,276.72H10c-5.52,0-10-4.48-10-10v-95.91c0-5.52,4.48-10,10-10s10,4.48,10,10v85.91h80.38c5.52,0,10,4.48,10,10s-4.48,10-10,10Z"/>
      <path class="cls-1" d="m266.72,110.38c-5.52,0-10-4.48-10-10V20h-80.38c-5.52,0-10-4.48-10-10s4.48-10,10-10h90.38c5.52,0,10,4.48,10,10v90.38c0,5.52-4.48,10-10,10Z"/>
      <path class="cls-1" d="m250.45,260.45h-95.91c-5.52,0-10-4.48-10-10s4.48-10,10-10h85.91v-80.38c0-5.52,4.48-10,10-10s10,4.48,10,10v90.38c0,5.52-4.48,10-10,10Z"/>
      <path class="cls-1" d="m26.28,126.66c-5.52,0-10-4.48-10-10V26.28c0-5.52,4.48-10,10-10h90.38c5.52,0,10,4.48,10,10s-4.48,10-10,10H36.28v80.38c0,5.52-4.48,10-10,10Z"/>
      <g>
        <path class="cls-1" d="m74.64,211.19c-2.05,0-4.09-.78-5.66-2.34-3.12-3.12-3.12-8.19,0-11.31l27.15-27.15c3.12-3.12,8.19-3.12,11.31,0,3.12,3.12,3.12,8.19,0,11.31l-27.15,27.15c-1.56,1.56-3.61,2.34-5.66,2.34Z"/>
        <polygon class="cls-1" points="100.16 217.16 46.22 231.61 60.67 177.67 100.16 217.16"/>
      </g>
      <g>
        <path class="cls-1" d="m176.65,109.18c-2.05,0-4.09-.78-5.66-2.34-3.12-3.12-3.12-8.19,0-11.31l27.15-27.15c3.12-3.12,8.19-3.12,11.31,0,3.12,3.12,3.12,8.19,0,11.31l-27.15,27.15c-1.56,1.56-3.61,2.34-5.66,2.34Z"/>
        <polygon class="cls-1" points="217.76 99.56 232.21 45.62 178.27 60.07 217.76 99.56"/>
      </g>
      <g>
        <path class="cls-1" d="m91.28,118.8v32.19h-9.11v-25.16h-5.98v-7.04h15.08Z"/>
        <path class="cls-1" d="m120.99,143.77v7.22h-25.06v-5.7l12.05-11.27c2.58-2.39,2.94-3.86,2.94-5.2,0-2.07-1.38-3.31-4.14-3.31-2.35,0-4.46,1.06-5.75,3.13l-6.76-3.77c2.44-4.05,6.99-6.71,13.34-6.71,7.4,0,12.51,3.82,12.51,9.8,0,3.13-.87,5.98-5.47,10.21l-6.07,5.61h12.42Z"/>
        <path class="cls-1" d="m123.62,134.9c0-10.62,5.98-16.74,14.21-16.74s14.16,6.12,14.16,16.74-5.98,16.74-14.16,16.74-14.21-6.12-14.21-16.74Zm19.22,0c0-6.76-2.12-9.29-5.01-9.29s-5.06,2.53-5.06,9.29,2.12,9.29,5.06,9.29,5.01-2.53,5.01-9.29Z"/>
        <path class="cls-1" d="m175.36,150.99l-6.67-9.98-6.58,9.98h-10.39l11.73-16.28-11.22-15.91h10.26l6.44,9.29,6.35-9.29h9.84l-11.22,15.54,11.96,16.65h-10.49Z"/>
      </g>
    </g>
  </g>
</svg>