<?xml version="1.0" encoding="UTF-8"?>
<svg id="Layer_2" data-name="Layer 2" xmlns="http://www.w3.org/2000/svg" viewBox="0 0 191.62 90.67">
  <defs>
    <style>
      .cls-1 {
        fill: #00fbb9;
        stroke-width: 0px;
      }
    </style>
  </defs>
  <g id="Layer_1-2" data-name="Layer 1">
    <g>
      <circle class="cls-1" cx="12.46" cy="46.05" r="3"/>
      <g>
        <g>
          <path class="cls-1" d="m98.44,60.62v-3.03l5.45-2.98h2.24v17.68h-3.37v-14.06l-4.32,2.39Z"/>
          <path class="cls-1" d="m117.66,60.21c0-1.77-1.26-3.01-2.98-3.01-1.28,0-2.75.57-4.14,1.64v-3.11c1.59-.95,3.34-1.44,5.09-1.44,3.19,0,5.47,2.24,5.47,5.37,0,2.7-1.95,5.65-6.42,9.79h6.6v2.83h-11.15v-2.11c5.4-4.7,7.53-7.66,7.53-9.97Z"/>
          <path class="cls-1" d="m130.19,54.3c3.93,0,6.63,3.75,6.63,9.15s-2.7,9.15-6.63,9.15-6.66-3.75-6.66-9.15,2.7-9.15,6.66-9.15Zm0,15.47c2,0,3.32-2.49,3.32-6.32s-1.31-6.32-3.32-6.32-3.34,2.47-3.34,6.32,1.31,6.32,3.34,6.32Z"/>
          <path class="cls-1" d="m143.16,54.61v7.32h8.2v-7.32h3.37v17.68h-3.37v-7.63h-8.2v7.63h-3.34v-17.68h3.34Z"/>
          <path class="cls-1" d="m163.7,62.09h-5.76v-2.65h9.97v1.9l-6.12,8.3h6.27v2.65h-10.46v-1.9l6.09-8.3Z"/>
        </g>
        <g>
          <path class="cls-1" d="m46.72,18.48l9.21,23.39h-4.39l-2.14-5.61h-9.21l-2.14,5.61h-4.35l9.21-23.39h3.81Zm1.46,14.45l-3.37-8.87-3.37,8.87h6.73Z"/>
          <path class="cls-1" d="m62.61,18.48l7.51,10.44,7.48-10.44h3.91v23.39h-4.18v-16.29l-5.88,8.19h-2.69l-5.81-8.19v16.29h-4.18v-23.39h3.84Z"/>
          <path class="cls-1" d="m97.07,18.07c6.7,0,11.42,5.03,11.42,12.1s-4.73,12.1-11.42,12.1-11.42-5.03-11.42-12.1,4.73-12.1,11.42-12.1Zm0,20.47c4.05,0,6.83-3.47,6.83-8.36s-2.79-8.36-6.83-8.36-6.83,3.47-6.83,8.36,2.79,8.36,6.83,8.36Z"/>
          <path class="cls-1" d="m117.04,18.48v19.75h9.38v3.64h-13.8v-23.39h4.42Z"/>
          <path class="cls-1" d="m143.61,18.48v3.64h-9.72v6.09h8.4v3.57h-8.4v6.46h10v3.64h-14.42v-23.39h14.14Z"/>
          <path class="cls-1" d="m156.61,18.48c6.7,0,11.46,4.86,11.46,11.7s-4.76,11.7-11.46,11.7h-8.47v-23.39h8.47Zm-.24,19.75c4.22,0,7.14-3.3,7.14-8.06s-2.92-8.06-7.14-8.06h-3.81v16.12h3.81Z"/>
        </g>
        <path class="cls-1" d="m178.41,90.67H13.21c-7.28,0-13.21-5.93-13.21-13.21V13.21C0,5.93,5.92,0,13.21,0h165.2c7.28,0,13.21,5.93,13.21,13.21v64.25c0,7.28-5.92,13.21-13.21,13.21ZM13.21,2.93C7.54,2.93,2.93,7.54,2.93,13.21v64.25c0,5.67,4.61,10.27,10.27,10.27h165.2c5.67,0,10.27-4.61,10.27-10.27V13.21c0-5.67-4.61-10.27-10.27-10.27H13.21Z"/>
        <g>
          <path class="cls-1" d="m73.81,60.56v-2.95l5.3-2.9h2.17v17.2h-3.27v-13.67l-4.2,2.32Z"/>
          <path class="cls-1" d="m94.36,64.26v2.57h-6.4v-2.57h6.4Z"/>
        </g>
      </g>
    </g>
  </g>
</svg>