<?xml version="1.0" encoding="UTF-8"?>
<svg id="Layer_2" data-name="Layer 2" xmlns="http://www.w3.org/2000/svg" viewBox="0 0 103.4 150.58">
  <defs>
    <style>
      .cls-1 {
        fill: #00fbb9;
        stroke-width: 0px;
      }
    </style>
  </defs>
  <g id="Layer_1-2" data-name="Layer 1">
    <g>
      <g>
        <path class="cls-1" d="m19.67,138.48c-1.65,1-3.3,1.49-5.01,1.49-5.3,0-8.16-3.74-7.1-9.11,1.14-5.82,6.2-9.9,12.25-9.9s9.01,4.49,7.74,10.98c-1.2,6.12-5.93,12.56-13.28,18.13h-6.81c5.53-3.74,9.7-7.73,12.21-11.6Zm2.71-7.19c.66-3.37-.84-5.74-3.55-5.74-2.88,0-5.33,2.08-5.93,5.11-.55,2.83.97,4.87,3.76,4.87,1.63,0,3.4-.75,5.14-2.16.26-.67.44-1.37.58-2.08Z"/>
        <path class="cls-1" d="m42.51,120.97c6.39,0,9.58,6.07,7.87,14.81-1.71,8.73-7.29,14.8-13.68,14.8s-9.62-6.07-7.9-14.8c1.71-8.73,7.29-14.81,13.71-14.81Zm-4.91,25.04c3.26,0,6.18-4.03,7.39-10.23,1.22-6.24-.12-10.23-3.38-10.23s-6.21,3.99-7.43,10.23c-1.22,6.2.12,10.23,3.42,10.23Z"/>
        <path class="cls-1" d="m75.71,150.08l-2.55-21.67-11.01,21.67h-4.92l-4.2-28.62h5.47l2.55,21.67,11.06-21.67h4.92l2.51,21.67,11.01-21.67h5.51l-15.42,28.62h-4.93Z"/>
      </g>
      <g>
        <polygon class="cls-1" points="66.81 58.18 58.77 62.39 71.47 27.15 60.72 32.78 73.61 0 39.16 0 34.1 51.18 42.72 45.43 36.53 79.41 44.54 73.82 41.19 105.56 66.81 58.18"/>
        <path class="cls-1" d="m37.46,99.23C15.4,92.93,0,72.48,0,49.52,0,28.02,12.95,9.09,32.99,1.31l1.61,4.15C16.29,12.57,4.45,29.87,4.45,49.52c0,20.99,14.08,39.67,34.23,45.44l-1.22,4.28Z"/>
        <path class="cls-1" d="m52.61,101.21l-.08-4.45c25.6-.44,46.42-21.63,46.42-47.24,0-16.71-8.97-32.35-23.41-40.81l2.25-3.84c15.8,9.25,25.62,26.36,25.62,44.65,0,28.02-22.79,51.21-50.79,51.69Z"/>
      </g>
    </g>
  </g>
</svg>