<?xml version="1.0" encoding="utf-8"?>
<!-- Generator: Adobe Illustrator 27.7.0, SVG Export Plug-In . SVG Version: 6.00 Build 0)  -->
<svg version="1.1" id="Layer_2_00000093163847807637458100000014494375129074170243_"
	 xmlns="http://www.w3.org/2000/svg" xmlns:xlink="http://www.w3.org/1999/xlink" x="0px" y="0px" viewBox="0 0 145.8 72.9"
	 style="enable-background:new 0 0 145.8 72.9;" xml:space="preserve">
<style type="text/css">
	.st0{fill:#E6D2DB;}
	.st1{fill:#8790D6;}
	.st2{fill:#FFFFFF;}
</style>
<g id="Layer_1-2">
	<g>
		<g>
			<g>
				<path class="st0" d="M2.1,5.8v59.5c0,2.3,2.2,4.1,4.5,3.5c15.9-4.2,72-16.4,132.8,0c2.3,0.6,4.6-1.1,4.6-3.4V5.5
					c0-2.4-2.2-4.1-4.5-3.5C122.7,6.7,63,20.8,6.7,2.4C4.4,1.6,2.1,3.3,2.1,5.8L2.1,5.8z"/>
				<path class="st1" d="M140.3,70.8c-0.5,0-1-0.1-1.5-0.2C78.5,54.3,22.7,66.5,7,70.6c-1.7,0.4-3.4,0.1-4.8-1S0,66.9,0,65.2V5.8
					C0.1,4,1,2.3,2.4,1.3S5.6,0,7.3,0.5C62.9,18.7,122,4.9,138.8,0.2c1.7-0.5,3.4-0.1,4.8,0.9c1.4,1,2.2,2.7,2.2,4.4v59.7
					c0,1.7-0.8,3.3-2.2,4.4C142.7,70.4,141.5,70.8,140.3,70.8L140.3,70.8z M74.3,58.5c19.9,0,42.4,2.1,65.5,8.4
					c0.5,0.1,1.1,0,1.5-0.3c0.2-0.2,0.6-0.6,0.6-1.3V5.5c0-0.5-0.2-1-0.6-1.3c-0.4-0.3-0.9-0.4-1.4-0.3C122.8,8.7,62.8,22.8,6.1,4.2
					C5.6,4,5.1,4.1,4.7,4.4C4.3,4.8,4,5.2,4,5.8v59.5c0,0.5,0.2,1,0.6,1.3c0.2,0.2,0.7,0.5,1.4,0.3C15.9,64.2,41.6,58.5,74.3,58.5
					L74.3,58.5z"/>
			</g>
			<g>
				<path class="st2" d="M114.8,54.1L129.6,42l14.3,16.1v7.6c0,2.1-2,3.7-4.1,3.2l-10.6-2.7L114.8,54.1L114.8,54.1z"/>
				<path class="st1" d="M140.6,71c-0.4,0-0.9-0.1-1.3-0.2l-11-2.8l-16.5-13.9l18-14.7l16,18.1v8.3c0,1.6-0.7,3.1-2,4.1
					C142.9,70.6,141.8,71,140.6,71L140.6,71z M130.1,64.5l10.1,2.6c0.6,0.2,1-0.1,1.2-0.2c0.2-0.2,0.5-0.5,0.5-1.1v-6.9l-12.6-14.2
					l-11.5,9.4L130.1,64.5L130.1,64.5z"/>
			</g>
			<g>
				<circle class="st2" cx="16.6" cy="20.3" r="5.9"/>
				<path d="M16.6,28.1c-4.3,0-7.8-3.5-7.8-7.8s3.5-7.8,7.8-7.8s7.8,3.5,7.8,7.8S20.9,28.1,16.6,28.1z M16.6,16.3
					c-2.2,0-3.9,1.8-3.9,3.9s1.8,3.9,3.9,3.9s3.9-1.8,3.9-3.9S18.8,16.3,16.6,16.3z"/>
			</g>
			<g>
				<path class="st2" d="M71.6,60.3l-36-32.6L1.9,44L2,65.9c0,2,1.9,3.5,3.8,2.9C15.1,66.4,39.8,60.7,71.6,60.3z"/>
				<path class="st1" d="M5.1,70.9c-1.1,0-2.1-0.3-3-1c-1.2-0.9-2-2.4-2-4L0,42.8l35.9-17.4l40.7,36.8l-4.9,0.1
					c-31.5,0.4-56.1,6.1-65.2,8.5C6,70.9,5.5,70.9,5.1,70.9L5.1,70.9z M3.9,45.2L4,65.9c0,0.5,0.3,0.8,0.4,0.9
					c0.2,0.1,0.5,0.3,1,0.2c8.8-2.3,31.7-7.6,61.3-8.5L35.2,30L3.9,45.2z"/>
			</g>
			<g>
				<path class="st2" d="M129.2,66.2L92.6,35.4L63.2,52.8l8.3,7.5C71.6,60.3,98.3,59.5,129.2,66.2L129.2,66.2z"/>
				<path class="st1" d="M136.5,69.8l-7.6-1.7c-30.4-6.6-56.9-5.9-57.2-5.9h-0.8L60,52.4L92.8,33L136.5,69.8L136.5,69.8z M74.4,58.3
					c7,0,25.9,0.4,47.8,4.5L92.5,37.7l-26,15.4l5.8,5.3C72.8,58.4,73.5,58.3,74.4,58.3z"/>
			</g>
		</g>
	</g>
</g>
</svg>
