<?xml version="1.0" encoding="UTF-8"?>
<svg fill= '#ffffff' id="Layer_2" data-name="Layer 2" xmlns="http://www.w3.org/2000/svg" viewBox="0 0 255.03 256.53">
  <defs>
    <style>
      .cls-1 {
        stroke-width: 0px;
        color: white;
        backgroun-color: white;
      }
    </style>
  </defs>
  <g fill= '#ffffff' id="Isolation_Mode" data-name="Isolation Mode" >
    <g>
      <path  fill= '#ffffff'  class="cls-1" d="m127.52,256.53C57.2,256.53,0,198.99,0,128.26S57.2,0,127.52,0s127.52,57.54,127.52,128.26-57.2,128.26-127.52,128.26Zm0-251.63C59.9,4.89,4.89,60.24,4.89,128.26s55.01,123.37,122.62,123.37,122.62-55.34,122.62-123.37S195.13,4.89,127.52,4.89Z"/>
      <path  fill= '#ffffff' class="cls-1" d="m127.52,245.91c-64.49,0-116.95-52.77-116.95-117.64S63.03,10.62,127.52,10.62s116.95,52.78,116.95,117.65-52.46,117.64-116.95,117.64Zm0-234.12c-63.84,0-115.78,52.25-115.78,116.48s51.94,116.48,115.78,116.48,115.79-52.25,115.79-116.48S191.36,11.78,127.52,11.78Z"/>
      <path fill= '#ffffff'  class="cls-1" d="m84.37,106.89c-16.54,0-30-13.46-30-30s13.46-30,30-30,30,13.46,30,30-13.46,30-30,30Zm0-55.51c-14.07,0-25.51,11.44-25.51,25.51s11.44,25.51,25.51,25.51,25.51-11.44,25.51-25.51-11.44-25.51-25.51-25.51Z"/>
      <path fill= '#ffffff' class="cls-1" d="m169.38,106.89c-16.54,0-30-13.46-30-30s13.46-30,30-30,30,13.46,30,30-13.46,30-30,30Zm0-55.51c-14.07,0-25.51,11.44-25.51,25.51s11.44,25.51,25.51,25.51,25.51-11.44,25.51-25.51-11.44-25.51-25.51-25.51Z"/>
      <path fill= '#ffffff' class="cls-1" d="m187.63,186.75c-16.21,0-29.39-13.19-29.39-29.4s13.19-29.4,29.39-29.4,29.39,13.19,29.39,29.4-13.19,29.4-29.39,29.4Zm0-54.3c-13.73,0-24.91,11.17-24.91,24.91s11.17,24.91,24.91,24.91,24.91-11.17,24.91-24.91-11.17-24.91-24.91-24.91Z"/>
      <g>
        <circle class="cls-1" cx="120.5" cy="205.97" r="5.6"/>
        <circle class="cls-1" cx="134.53" cy="205.85" r="5.6"/>
      </g>
      <path fill= '#ffffff' class="cls-1" d="m62.34,187.35c-16.54,0-30-13.46-30-30s13.46-30,30-30,30,13.46,30,30-13.46,30-30,30Zm0-55.51c-14.07,0-25.51,11.44-25.51,25.51s11.44,25.51,25.51,25.51,25.51-11.44,25.51-25.51-11.44-25.51-25.51-25.51Z"/>
      <path fill= '#ffffff' class="cls-1" d="m195.9,142.54c.86,0,1.57.7,1.57,1.57v26.91c0,.86-.7,1.57-1.57,1.57h-16.53c-.86,0-1.57-.7-1.57-1.57v-26.91c0-.86.7-1.57,1.57-1.57h16.53m0-1.66h-16.53c-1.78,0-3.23,1.45-3.23,3.23v26.91c0,1.78,1.45,3.23,3.23,3.23h16.53c1.78,0,3.23-1.45,3.23-3.23v-26.91c0-1.78-1.45-3.23-3.23-3.23h0Z"/>
      <path fill= '#ffffff' class="cls-1" d="m84.37,91.88c-8.26,0-14.99-6.72-14.99-14.99s6.72-14.99,14.99-14.99,14.99,6.72,14.99,14.99-6.72,14.99-14.99,14.99Zm0-28.31c-7.35,0-13.33,5.98-13.33,13.33s5.98,13.33,13.33,13.33,13.33-5.98,13.33-13.33-5.98-13.33-13.33-13.33Z"/>
      <path fill= '#ffffff' class="cls-1" d="m62.34,166.58c-5.2,0-9.43-4.23-9.43-9.43s4.23-9.43,9.43-9.43,9.43,4.23,9.43,9.43-4.23,9.43-9.43,9.43Zm0-17.81c-4.62,0-8.38,3.76-8.38,8.38s3.76,8.38,8.38,8.38,8.38-3.76,8.38-8.38-3.76-8.38-8.38-8.38Z"/>
      <path fill= '#ffffff' class="cls-1" d="m169.38,96.76c-10.96,0-19.87-8.91-19.87-19.87s8.91-19.87,19.87-19.87,19.87,8.91,19.87,19.87-8.91,19.87-19.87,19.87Zm0-36.41c-9.12,0-16.55,7.42-16.55,16.55s7.42,16.55,16.55,16.55,16.54-7.42,16.54-16.55-7.42-16.55-16.54-16.55Z"/>
    </g>
  </g>
</svg>