<?xml version="1.0" encoding="utf-8"?>
<!-- Generator: Adobe Illustrator 27.7.0, SVG Export Plug-In . SVG Version: 6.00 Build 0)  -->
<svg version="1.1" id="Layer_1" xmlns="http://www.w3.org/2000/svg" xmlns:xlink="http://www.w3.org/1999/xlink" x="0px" y="0px"
	 viewBox="0 0 250 250" style="enable-background:new 0 0 250 250;" xml:space="preserve">
<style type="text/css">
	.st0{fill:#D9E8F7;}
	.st1{fill:#59A8E2;}
	.st2{fill:#FFFFFF;}
</style>
<g>
	<g>
		<g>
			<path class="st0" d="M94.2,84.7h61.6c5.3,0,9.5,4.3,9.5,9.5v61.6c0,5.3-4.3,9.5-9.5,9.5H94.2c-5.3,0-9.5-4.3-9.5-9.5V94.2
				C84.7,89,88.9,84.7,94.2,84.7z"/>
			<path class="st1" d="M152.5,167.3H97.5c-8.2,0-14.9-6.7-14.9-14.9V97.5c0-8.2,6.7-14.9,14.9-14.9h54.9c8.2,0,14.9,6.7,14.9,14.9
				v54.9C167.3,160.7,160.7,167.3,152.5,167.3z M97.5,86.7c-6,0-10.8,4.8-10.8,10.8v54.9c0,6,4.8,10.8,10.8,10.8h54.9
				c6,0,10.8-4.9,10.8-10.8V97.5c0-6-4.9-10.8-10.8-10.8H97.5z"/>
		</g>
		<g>
			<circle class="st2" cx="125" cy="125" r="22.9"/>
			<path class="st1" d="M125,150c-13.8,0-25-11.2-25-25s11.2-25,25-25s25,11.2,25,25S138.8,150,125,150z M125,104.1
				c-11.5,0-20.9,9.4-20.9,20.9s9.4,20.9,20.9,20.9s20.9-9.4,20.9-20.9S136.5,104.1,125,104.1z"/>
		</g>
		<path d="M133.4,125c0,4.6-3.8,8.4-8.4,8.4s-8.4-3.8-8.4-8.4s3.8-8.4,8.4-8.4v8.4H133.4z"/>
	</g>
</g>
</svg>
