<?xml version="1.0" encoding="utf-8"?>
<!-- Generator: Adobe Illustrator 27.7.0, SVG Export Plug-In . SVG Version: 6.00 Build 0)  -->
<svg version="1.1" id="Layer_1" xmlns="http://www.w3.org/2000/svg" xmlns:xlink="http://www.w3.org/1999/xlink" x="0px" y="0px"
	 viewBox="0 0 250 250" style="enable-background:new 0 0 250 250;" xml:space="preserve">
<style type="text/css">
	.st0{fill:#D9E8F7;}
	.st1{fill:#59A8E2;}
	.st2{fill:#FFFFFF;}
</style>
<g>
	<g>
		<path class="st0" d="M111.6,115.4l10-37.9c0.4-1.5,2.5-1.5,2.9,0l10,37.9c0.2,0.9-0.5,1.9-1.4,1.9h-20.1
			C112.1,117.3,111.4,116.4,111.6,115.4L111.6,115.4z"/>
		<path class="st1" d="M133.1,119.2h-20.1c-1.1,0-2-0.5-2.7-1.3s-0.9-1.9-0.6-2.9l10-37.9c0.4-1.5,1.7-2.5,3.3-2.5s2.9,1,3.3,2.5
			l10,37.9c0.3,1,0.1,2.1-0.6,2.9C135.2,118.7,134.2,119.2,133.1,119.2L133.1,119.2z M113.6,115.4h18.9l-9.5-35.8L113.6,115.4z"/>
	</g>
	<rect x="121.2" y="117.3" class="st1" width="3.8" height="8.5"/>
	<g>
		<path class="st0" d="M146.2,115.8l10-37.9c0.4-1.5,2.5-1.5,2.9,0l10,37.9c0.2,0.9-0.5,1.9-1.4,1.9h-20.1
			C146.7,117.6,146,116.7,146.2,115.8L146.2,115.8z"/>
		<path class="st1" d="M167.7,119.6h-20.1c-1.1,0-2-0.5-2.7-1.3c-0.6-0.8-0.9-1.9-0.6-2.9l10-37.9c0.4-1.5,1.7-2.5,3.3-2.5
			s2.9,1,3.3,2.5l10,37.9c0.3,1,0.1,2.1-0.6,2.9C169.8,119.1,168.8,119.6,167.7,119.6L167.7,119.6z M148.1,116.3L148.1,116.3
			L148.1,116.3z M148.2,115.7h18.9l-9.5-35.8L148.2,115.7z"/>
	</g>
	<rect x="155.8" y="117.6" class="st1" width="3.8" height="8.5"/>
	<g>
		<path class="st0" d="M80.9,115.8l10-37.9c0.4-1.5,2.5-1.5,2.9,0l10,37.9c0.2,0.9-0.5,1.9-1.4,1.9H82.3
			C81.3,117.6,80.6,116.7,80.9,115.8L80.9,115.8z"/>
		<path class="st1" d="M102.4,119.6H82.3c-1.1,0-2-0.5-2.7-1.3s-0.9-1.9-0.6-2.9l10-37.9c0.4-1.5,1.7-2.5,3.3-2.5s2.9,1,3.3,2.5
			l10,37.9c0.3,1,0.1,2.1-0.6,2.9C104.4,119.1,103.4,119.6,102.4,119.6L102.4,119.6z M82.9,115.7h18.9l-9.5-35.8L82.9,115.7z"/>
	</g>
	<rect x="90.4" y="117.6" class="st1" width="3.8" height="8.5"/>
	<g>
		<path class="st2" d="M121.8,160l18.1-68.2c0.3-1.2,2.1-1.2,2.4,0l18.1,68.2c0.2,0.8-0.4,1.5-1.2,1.5H123
			C122.2,161.6,121.6,160.8,121.8,160L121.8,160z"/>
		<path d="M159.2,163.5H123c-1,0-1.9-0.5-2.5-1.2s-0.8-1.8-0.6-2.7l18.1-68.2c0.4-1.4,1.6-2.3,3.1-2.3l0,0c1.4,0,2.7,0.9,3.1,2.3
			l18.1,68.2c0.2,1,0.1,2-0.6,2.7S160.2,163.5,159.2,163.5L159.2,163.5z M123.7,160.5L123.7,160.5L123.7,160.5L123.7,160.5z
			 M123.9,159.7h34.3l-17.2-64.9C141.1,94.8,123.9,159.7,123.9,159.7z"/>
	</g>
	<rect x="139.2" y="161.6" width="3.8" height="13.9"/>
</g>
</svg>
